<svg xmlns="http://www.w3.org/2000/svg" viewBox="0 0 35 35" role="img">
  <path d="M30.49,34.28h-26a4,4,0,0,1-4-4v-21a4,4,0,0,1,4-4h26a4,4,0,0,1,4,4v21A4,4,0,0,1,30.49,34.28Zm-26-27a2,2,0,0,0-2,2v21a2,2,0,0,0,2,2h26a2,2,0,0,0,2-2v-21a2,2,0,0,0-2-2h-26Z"></path>
  <g>
    <path d="M10.5,10.72a1,1,0,0,1-1-.93V1.65a1,1,0,0,1,2,0V9.79A1,1,0,0,1,10.5,10.72Z"></path>
    <path d="M17.5,10.72a1,1,0,0,1-1-.93V1.65a1,1,0,0,1,2,0V9.79A1,1,0,0,1,17.5,10.72Z"></path>
    <path d="M24.5,10.72a1,1,0,0,1-1-.93V1.65a1,1,0,0,1,2,0V9.79A1,1,0,0,1,24.5,10.72Z"></path>
  </g>
  <polygon points="17.35 15.63 19.2 19.25 23.35 19.83 20.35 22.65 21.06 26.63 17.35 24.75 13.64 26.63 14.35 22.65 11.35 19.83 15.49 19.25 17.35 15.63"></polygon>
</svg>