<svg xmlns="http://www.w3.org/2000/svg" xmlns:xlink="http://www.w3.org/1999/xlink" version="1.1" x="0px" y="0px" width="35px" height="35px" viewBox="0 0 35 35" enable-background="new 0 0 35 35" xml:space="preserve" role="img" >
<path d="M17.5,34.5c-9.4,0-17-7.6-17-17s7.6-17,17-17s17,7.6,17,17S26.9,34.5,17.5,34.5z M17.5,2.5  c-8.3,0-15,6.7-15,15s6.7,15,15,15s15-6.7,15-15C32.5,9.2,25.8,2.5,17.5,2.5C17.5,2.5,17.5,2.5,17.5,2.5L17.5,2.5z M23.3,23.9  l-6.8-6.8V6.5h1v10.3l6.5,6.4L23.3,23.9z"></path>
</svg>